<svg xmlns="http://www.w3.org/2000/svg" width="1120" height="220" viewBox="0 0 1120 220" role="img" aria-label="대교 평생교육 학습 컨설팅 배너">
  <defs>
    <linearGradient id="bg" x1="0" x2="1" y1="0" y2="0">
      <stop offset="0" stop-color="#ffffff"/>
      <stop offset="0.58" stop-color="#f4f8ff"/>
      <stop offset="1" stop-color="#0b4ea2"/>
    </linearGradient>
    <linearGradient id="btn" x1="0" x2="1"><stop stop-color="#ff8a00"/><stop offset="1" stop-color="#ff5a00"/></linearGradient>
  </defs>
  <rect width="1120" height="220" fill="url(#bg)"/>
  <path d="M225 0 C185 38 165 86 165 220" fill="none" stroke="#1f74ff" stroke-width="8" opacity="0.9"/>
  <text x="56" y="82" font-family="Arial, sans-serif" font-size="42" font-weight="900" fill="#637381">DAEKYO</text>
  <text x="116" y="124" font-family="Arial, sans-serif" font-size="34" font-weight="900" fill="#4b5563">대교</text>
  <text x="54" y="42" font-family="Arial, sans-serif" font-size="16" fill="#7b8794">세상에서 가장 큰 학교</text>
  <text x="285" y="78" font-family="Arial, sans-serif" font-size="42" font-weight="900" fill="#0068ff">평생교육·학습</text>
  <text x="570" y="78" font-family="Arial, sans-serif" font-size="42" font-weight="900" fill="#061329">컨설팅</text>
  <text x="286" y="115" font-family="Arial, sans-serif" font-size="22" font-weight="700" fill="#1f2937">성장의 기회를 더 크게, 미래를 더 넓게</text>
  <g transform="translate(295 145)" fill="none" stroke="#0068ff" stroke-width="4"><path d="M0 32 L24 18 L48 32 L24 46 Z"/><path d="M24 46 v25"/></g>
  <text x="362" y="170" font-family="Arial, sans-serif" font-size="18" font-weight="800" fill="#0b3a78">맞춤 교육 프로그램</text>
  <text x="362" y="196" font-family="Arial, sans-serif" font-size="15" fill="#667085">개인·기관별 맞춤 설계</text>
  <g transform="translate(568 146)" fill="none" stroke="#0068ff" stroke-width="4"><circle cx="22" cy="20" r="18"/><path d="M0 70 c6-28 38-28 44 0"/><path d="M57 20 l10 9 l20-23" stroke="#ff7a00"/></g>
  <text x="662" y="170" font-family="Arial, sans-serif" font-size="18" font-weight="800" fill="#0b3a78">전문 컨설팅 지원</text>
  <text x="662" y="196" font-family="Arial, sans-serif" font-size="15" fill="#667085">경험 많은 전문가 1:1 상담</text>
  <text x="885" y="52" font-family="Arial, sans-serif" font-size="20" font-weight="800" fill="#ffffff">유아부터 시니어까지</text>
  <text x="885" y="83" font-family="Arial, sans-serif" font-size="18" fill="#dbeafe">전 생애 맞춤 학습 지원</text>
  <rect x="872" y="128" width="190" height="52" rx="26" fill="url(#btn)"/>
  <text x="919" y="162" font-family="Arial, sans-serif" font-size="22" font-weight="900" fill="#ffffff">지금 문의</text>
  <text x="1040" y="162" font-family="Arial, sans-serif" font-size="26" font-weight="900" fill="#ffffff">›</text>
  <text x="1008" y="207" font-family="Arial, sans-serif" font-size="11" fill="#bfdbfe">AD MOCKUP</text>
</svg>
